<svg width="158" height="49" viewBox="0 0 158 49" fill="none" xmlns="http://www.w3.org/2000/svg">
<path fill-rule="evenodd" clip-rule="evenodd" d="M7.284 10.8951H8.72898C9.4321 10.8951 10.0071 11.4701 10.0071 12.1732C10.0071 12.8763 9.4321 13.4513 8.72898 13.4513H7.284C6.58087 13.4513 6.00586 12.8763 6.00586 12.1732C6.00586 11.4701 6.58087 10.8951 7.284 10.8951ZM9.06266 25.47H11.1542C11.8573 25.47 12.4323 26.045 12.4323 26.7481C12.4323 27.4512 11.8573 28.0263 11.1542 28.0263H9.06266C8.35954 28.0263 7.78452 27.4512 7.78452 26.7481C7.78452 26.045 8.35954 25.47 9.06266 25.47ZM12.912 20.6852H14.7115C15.4146 20.6852 15.9896 21.2602 15.9896 21.9633C15.9896 22.6664 15.4146 23.2414 14.7115 23.2414H12.912C12.2088 23.2414 11.6338 22.6664 11.6338 21.9633C11.6338 21.2602 12.2088 20.6852 12.912 20.6852ZM12.471 34.8221H13.916C14.6191 34.8221 15.1941 35.3971 15.1941 36.1003C15.1941 36.8034 14.6191 37.3784 13.916 37.3784H12.471C11.7679 37.3784 11.1929 36.8034 11.1929 36.1003C11.1929 35.3971 11.7679 34.8221 12.471 34.8221ZM28.2734 32.9243V37.8908L28.5297 37.9117C30.1176 38.0398 32.2747 38.019 33.7852 37.4916C36.5292 36.5293 38.8412 34.8013 40.1252 32.1437C41.019 30.2935 41.1829 28.8188 41.1918 26.7928C41.1918 25.9735 41.1799 24.1859 41.174 23.3636L41.0906 10.1145H28.2734V15.2091H36.1895V18.0544C36.1895 19.8122 36.2253 21.57 36.2104 23.3278L36.1776 27.9607C36.1568 30.3174 34.0534 32.5191 31.7593 32.8587C31.1366 32.9511 30.5139 32.9958 29.8853 32.9809C29.4413 32.969 28.9974 32.9273 28.5565 32.9273H28.2764L28.2734 32.9243ZM48.8577 22.8005V6H16.2429C15.5397 6 14.9647 6.57501 14.9647 7.27814C14.9647 7.98126 15.5397 8.55627 16.2429 8.55627H18.814C19.4546 8.55925 19.976 9.08362 19.976 9.72417C19.976 10.3647 19.4486 10.8921 18.8081 10.8921H14.2139C13.5108 10.8921 12.9358 11.4671 12.9358 12.1702C12.9358 12.8733 13.5108 13.4483 14.2139 13.4483H20.5897C21.2303 13.4513 21.7517 13.9757 21.7517 14.6162C21.7517 15.2568 21.2273 15.7841 20.5838 15.7841H14.211C13.5078 15.7841 12.9328 16.3592 12.9328 17.0623C12.9328 17.7654 13.5078 18.3404 14.211 18.3404H25.2405C25.884 18.3404 26.4084 18.8678 26.4084 19.5083C26.4084 20.1489 25.884 20.6762 25.2405 20.6762H18.6949C18.0186 20.709 17.4733 21.2721 17.4733 21.9544C17.4733 22.6366 18.0156 23.1997 18.6949 23.2325H18.7515H28.1096C28.7531 23.2325 29.2805 23.7598 29.2805 24.4004C29.2805 25.0439 28.7531 25.5683 28.1096 25.5683H15.6828C15.0392 25.5683 14.5149 26.0956 14.5149 26.7362C14.5149 27.3768 15.0422 27.9041 15.6828 27.9041H22.4101C23.0536 27.9041 23.578 28.4314 23.578 29.072C23.578 29.7126 23.0536 30.2399 22.4101 30.2399H14.0977C13.4572 30.2399 12.9298 30.7672 12.9298 31.4078C12.9298 32.0484 13.4572 32.5757 14.0977 32.5757H24.4599C25.1034 32.5757 25.6308 33.103 25.6308 33.7436C25.6308 34.3842 25.1034 34.9115 24.4599 34.9115H17.7623C17.1188 34.9115 16.5944 35.4388 16.5944 36.0794C16.5944 36.7229 17.1188 37.2473 17.7623 37.2473H20.0177C20.6612 37.2473 21.1856 37.7746 21.1856 38.4152C21.1856 39.0558 20.6582 39.5831 20.0177 39.5831H14.0977C13.4542 39.5831 12.9298 40.1105 12.9298 40.751C12.9298 41.3945 13.4572 41.9189 14.0977 41.9189H48.8577V31.4138V22.7767V22.8005Z" fill="#254557"/>
<path fill-rule="evenodd" clip-rule="evenodd" d="M14.2108 6H18.8138V8.55627H14.2108C13.5076 8.55627 12.9326 7.98126 12.9326 7.27814C12.9326 6.57501 13.5076 6 14.2108 6Z" fill="#254557"/>
<path fill-rule="evenodd" clip-rule="evenodd" d="M11.9588 10.895H18.8172V13.4513H11.9588C11.2557 13.4513 10.6807 12.8763 10.6807 12.1732C10.6807 11.47 11.2557 10.895 11.9588 10.895Z" fill="#254557"/>
<path fill-rule="evenodd" clip-rule="evenodd" d="M104.253 37.9505C104.789 37.9505 105.302 37.8313 105.766 37.5632C106.216 37.304 106.568 36.9464 106.824 36.4936C107.092 36.0229 107.211 35.5044 107.211 34.9652C107.211 34.4259 107.092 33.9075 106.824 33.4368C106.568 32.9839 106.216 32.6264 105.766 32.3672C105.302 32.0991 104.789 31.9799 104.253 31.9799C103.717 31.9799 103.198 32.102 102.727 32.3702C102.275 32.6294 101.917 32.9869 101.658 33.4398C101.39 33.9105 101.271 34.4259 101.271 34.9682C101.271 35.5104 101.39 36.0258 101.658 36.4966C101.917 36.9524 102.272 37.3069 102.727 37.5662C103.198 37.8343 103.711 37.9535 104.253 37.9535M88.8438 35.5015V37.9535H91.3375C91.7814 37.9535 92.3445 37.9028 92.7258 37.6496C93.0476 37.4351 93.1608 37.1073 93.1608 36.7319C93.1608 35.6892 92.2015 35.4985 91.3375 35.4985H88.8438V35.5015ZM88.8438 31.9769V34.3246H91.0544C91.4775 34.3246 91.975 34.265 92.3326 34.0178C92.6305 33.8092 92.7527 33.5113 92.7527 33.1508C92.7527 32.7903 92.6305 32.4923 92.3326 32.2838C91.975 32.0335 91.4775 31.9769 91.0544 31.9769H88.8438ZM80.1203 34.9652C80.1203 34.4229 80.0011 33.9075 79.7329 33.4368C79.4767 32.9839 79.1252 32.6264 78.6753 32.3672C78.2075 32.0961 77.698 31.9799 77.1618 31.9799C76.6255 31.9799 76.1071 32.102 75.6363 32.3702C75.1835 32.6294 74.826 32.9869 74.5668 33.4398C74.2986 33.9105 74.1795 34.4259 74.1795 34.9682C74.1795 35.5104 74.2986 36.0258 74.5668 36.4966C74.826 36.9494 75.1805 37.3069 75.6363 37.5662C76.1071 37.8343 76.6195 37.9535 77.1618 37.9535C77.704 37.9535 78.2075 37.8343 78.6753 37.5662C79.1252 37.3069 79.4767 36.9494 79.7329 36.4966C80.0011 36.0258 80.1203 35.5074 80.1203 34.9682V34.9652ZM62.0923 32.0454V35.4449H63.9037C64.443 35.4449 65.0478 35.3555 65.4738 34.998C65.8582 34.6762 65.9982 34.2293 65.9982 33.7377C65.9982 33.2461 65.8611 32.8022 65.4738 32.4834C65.0448 32.1318 64.44 32.0425 63.9037 32.0425H62.0923V32.0454ZM148.678 39.2197C148.073 39.2197 147.48 39.1243 146.908 38.9307C146.419 38.7668 145.931 38.5285 145.552 38.171L145.49 38.1114L146.014 36.9852L146.133 37.0954C146.455 37.3904 146.851 37.5989 147.257 37.7479C147.713 37.9147 148.189 38.0011 148.675 38.0011C149.125 38.0011 149.703 37.9475 150.084 37.6823C150.367 37.4827 150.522 37.2235 150.522 36.8749C150.522 36.6455 150.456 36.4459 150.293 36.285C150.117 36.1152 149.905 35.996 149.676 35.9126C149.321 35.7875 148.943 35.6921 148.579 35.6028C148.091 35.4836 147.584 35.3465 147.117 35.1588C146.729 35.0039 146.399 34.7656 146.128 34.4498C145.812 34.0833 145.707 33.6155 145.707 33.1418C145.707 32.6979 145.821 32.2838 146.062 31.9114C146.321 31.5121 146.7 31.2321 147.129 31.0354C147.668 30.7882 148.285 30.7137 148.871 30.7137C149.351 30.7137 149.825 30.7762 150.29 30.9014C150.719 31.0176 151.133 31.1933 151.496 31.4496L151.574 31.5032L151.109 32.6473L150.987 32.5698C150.665 32.3612 150.319 32.2004 149.95 32.0931C149.598 31.9888 149.238 31.9292 148.871 31.9292C148.422 31.9292 147.867 31.9888 147.495 32.2629C147.215 32.4715 147.06 32.7396 147.06 33.0912C147.06 33.3206 147.129 33.5202 147.295 33.6811C147.477 33.8539 147.695 33.976 147.93 34.0595C148.279 34.1846 148.654 34.277 149.014 34.3604C149.503 34.4766 150.007 34.6166 150.474 34.8043C150.859 34.9592 151.186 35.1946 151.458 35.5074C151.77 35.8679 151.881 36.3297 151.881 36.7975C151.881 37.2414 151.761 37.6526 151.52 38.025C151.258 38.4302 150.871 38.7072 150.436 38.9009C149.893 39.1422 149.274 39.2167 148.684 39.2167L148.678 39.2197ZM137.261 39.2197C136.48 39.2197 135.733 39.0499 135.05 38.6685C134.395 38.302 133.876 37.7956 133.501 37.1461C133.114 36.4757 132.941 35.7398 132.941 34.9652C132.941 34.1906 133.114 33.4547 133.501 32.7843C133.876 32.1348 134.401 31.6253 135.056 31.2619C135.742 30.8805 136.489 30.7107 137.273 30.7107C137.875 30.7107 138.465 30.809 139.022 31.0384C139.552 31.2559 140.008 31.5807 140.383 32.0127L140.458 32.0961L139.552 32.9899L139.469 32.9005C138.888 32.2778 138.17 31.9799 137.318 31.9799C136.772 31.9799 136.251 32.0991 135.774 32.3702C135.318 32.6294 134.958 32.9839 134.699 33.4398C134.431 33.9105 134.311 34.4259 134.311 34.9682C134.311 35.5104 134.431 36.0258 134.699 36.4966C134.958 36.9524 135.315 37.3069 135.774 37.5662C136.251 37.8343 136.769 37.9564 137.318 37.9564C138.17 37.9564 138.885 37.6466 139.469 37.0239L139.552 36.9345L140.458 37.8283L140.383 37.9118C140.005 38.3438 139.546 38.6685 139.016 38.889C138.456 39.1214 137.863 39.2227 137.261 39.2227V39.2197ZM125.588 30.8031H126.961V39.1273H125.588V30.8031ZM116.024 32.0454H113.298V30.8031H120.115V32.0454H117.389V39.1273H116.024V32.0454ZM104.25 39.2197C103.463 39.2197 102.71 39.0499 102.021 38.6685C101.363 38.302 100.839 37.7926 100.46 37.1401C100.07 36.4698 99.8941 35.7398 99.8941 34.9652C99.8941 34.1906 100.073 33.4606 100.46 32.7903C100.839 32.1378 101.363 31.6283 102.021 31.2619C102.71 30.8805 103.463 30.7107 104.25 30.7107C105.036 30.7107 105.781 30.8805 106.467 31.2619C107.125 31.6283 107.646 32.1348 108.022 32.7843C108.409 33.4547 108.582 34.1906 108.582 34.9652C108.582 35.7398 108.409 36.4727 108.022 37.1461C107.643 37.7985 107.122 38.305 106.467 38.6685C105.781 39.0499 105.033 39.2197 104.25 39.2197ZM93.2234 34.7864C93.5749 34.9265 93.8818 35.1439 94.1202 35.4508C94.427 35.8471 94.5432 36.3267 94.5432 36.8243C94.5432 37.5274 94.29 38.1203 93.715 38.5374C93.0625 39.0111 92.1627 39.1273 91.3792 39.1273H87.4673V30.8031H91.1527C91.8976 30.8031 92.7169 30.9252 93.3306 31.381C93.8729 31.7833 94.1231 32.3404 94.1231 33.0137C94.1231 33.4249 94.0367 33.8241 93.8163 34.1757C93.6614 34.4229 93.4617 34.6285 93.2234 34.7894V34.7864ZM77.1588 39.2197C76.3722 39.2197 75.6185 39.0499 74.9302 38.6685C74.2718 38.302 73.7474 37.7926 73.3691 37.1401C72.9788 36.4698 72.803 35.7398 72.803 34.9652C72.803 34.1906 72.9818 33.4606 73.3691 32.7903C73.7474 32.1378 74.2718 31.6283 74.9302 31.2619C75.6185 30.8805 76.3722 30.7107 77.1588 30.7107C77.9453 30.7107 78.6902 30.8805 79.3754 31.2619C80.0338 31.6283 80.5552 32.1348 80.9306 32.7843C81.3179 33.4547 81.4907 34.1906 81.4907 34.9652C81.4907 35.7398 81.3179 36.4727 80.9306 37.1461C80.5552 37.7956 80.0309 38.305 79.3754 38.6685C78.6902 39.0499 77.9424 39.2197 77.1588 39.2197ZM64.3774 36.6485C64.2314 36.6575 64.0825 36.6664 63.9365 36.6664H62.0893V39.1273H60.7158V30.8031H63.9365C64.8333 30.8031 65.7449 30.9878 66.4451 31.5836C67.1035 32.1408 67.3746 32.8886 67.3746 33.7407C67.3746 34.3365 67.2406 34.9086 66.8979 35.4032C66.5941 35.8441 66.1769 36.151 65.6883 36.3506L67.616 39.1273H66.0876L64.3744 36.6485H64.3774Z" fill="#101720"/>
<path fill-rule="evenodd" clip-rule="evenodd" d="M132.923 18.3613V23.1938H137.866C138.745 23.1938 139.865 23.0925 140.619 22.592C141.247 22.1749 141.471 21.5343 141.471 20.7895C141.471 18.7099 139.537 18.3613 137.866 18.3613H132.923ZM132.923 11.3241V15.948H137.3C138.137 15.948 139.126 15.8318 139.832 15.3373C140.419 14.9291 140.657 14.3452 140.657 13.6361C140.657 12.927 140.419 12.343 139.832 11.9349C139.126 11.4403 138.134 11.3241 137.3 11.3241H132.923ZM116.718 23.1908C117.782 23.1908 118.798 22.9554 119.725 22.4192C120.612 21.9037 121.313 21.1947 121.822 20.2919C122.352 19.3564 122.591 18.3345 122.591 17.256C122.591 16.1774 122.352 15.1555 121.822 14.22C121.31 13.3173 120.612 12.6082 119.725 12.0958C118.798 11.5595 117.782 11.3241 116.718 11.3241C115.655 11.3241 114.627 11.5625 113.688 12.0958C112.792 12.6082 112.083 13.3143 111.57 14.22C111.04 15.1555 110.801 16.1774 110.801 17.256C110.801 18.3345 111.04 19.3564 111.57 20.2919C112.086 21.1976 112.792 21.9037 113.688 22.4162C114.624 22.9495 115.646 23.1878 116.718 23.1878V23.1908ZM82.462 19.1776L79.4499 12.2119L76.4407 19.1776H82.462ZM149.074 8.91084H151.875V25.6071H149.074V8.91084ZM141.703 16.8925C142.385 17.1755 142.978 17.6016 143.446 18.2064C144.063 19.0048 144.295 19.9672 144.295 20.9712C144.295 22.3983 143.78 23.5871 142.633 24.4243C141.325 25.3776 139.522 25.6071 137.958 25.6071H130.125V8.91084H137.505C138.992 8.91084 140.637 9.15217 141.864 10.0698C142.946 10.8772 143.458 11.9974 143.458 13.359C143.458 14.1902 143.279 14.9917 142.838 15.6978C142.537 16.1804 142.156 16.5797 141.703 16.8925ZM116.718 25.7888C115.148 25.7888 113.644 25.4521 112.264 24.6835C110.95 23.9505 109.902 22.9316 109.139 21.6177C108.361 20.28 108.004 18.8112 108.004 17.256C108.004 15.7008 108.361 14.2349 109.139 12.8942C109.902 11.5803 110.95 10.5614 112.264 9.82848C113.644 9.05981 115.151 8.72314 116.718 8.72314C118.286 8.72314 119.778 9.06279 121.152 9.82848C122.463 10.5584 123.508 11.5714 124.265 12.8823C125.04 14.223 125.388 15.7008 125.388 17.253C125.388 18.8052 125.04 20.283 124.265 21.6237C123.508 22.9346 122.46 23.9476 121.152 24.6775C119.778 25.4432 118.283 25.7828 116.718 25.7828V25.7888ZM98.8096 25.7888C97.2514 25.7888 95.7558 25.4492 94.3883 24.6835C93.0833 23.9535 92.0405 22.9376 91.2868 21.6296C90.5121 20.2889 90.1636 18.8112 90.1636 17.2589C90.1636 15.7067 90.5121 14.229 91.2868 12.8883C92.0435 11.5773 93.0923 10.5644 94.4002 9.83443C95.7737 9.06874 97.2693 8.7291 98.8334 8.7291C100.034 8.7291 101.217 8.92276 102.331 9.38455C103.389 9.81954 104.301 10.469 105.057 11.336L105.227 11.5297L103.377 13.356L103.192 13.1564C102.03 11.914 100.603 11.3271 98.9228 11.3271C97.8413 11.3271 96.8075 11.5625 95.8601 12.1017C94.9573 12.6112 94.2453 13.3173 93.7298 14.226C93.1995 15.1615 92.9612 16.1834 92.9612 17.2619C92.9612 18.3404 93.1995 19.3624 93.7298 20.2979C94.2453 21.2066 94.9573 21.9127 95.8601 22.4221C96.8075 22.9584 97.8413 23.1968 98.9228 23.1968C100.609 23.1968 102.027 22.586 103.192 21.3436L103.377 21.144L105.227 22.9703L105.057 23.164C104.298 24.034 103.377 24.6864 102.319 25.1274C101.202 25.5922 100.013 25.7948 98.8096 25.7948V25.7888ZM83.4898 21.5671H75.4129L73.6699 25.6041H70.7472L78.1687 8.90786H80.7548L88.2002 25.6041H85.2328L83.4898 21.5671ZM64.9673 11.4612H60.8856V9.85231C60.9631 9.21175 61.2789 8.90786 61.9403 8.90786H67.744V20.14C67.744 21.6326 67.458 23.2325 66.4123 24.3528C65.3933 25.4492 63.9513 25.7888 62.5153 25.7888C61.8986 25.7888 61.2967 25.7054 60.7188 25.5326V22.7528C61.2372 23.0776 61.83 23.2593 62.5153 23.2593C63.2005 23.2593 63.8739 23.0836 64.3386 22.5264C64.8451 21.9186 64.9673 21.0278 64.9673 20.2562V11.4612Z" fill="#101720"/>
</svg>
