<?xml version="1.0" encoding="UTF-8"?>
<!-- Generated by Pixelmator Pro 3.3.2 -->
<svg width="587" height="493" viewBox="0 0 587 493" xmlns="http://www.w3.org/2000/svg" xmlns:xlink="http://www.w3.org/1999/xlink">
    <path id="Form" fill="none" stroke="#a5a6b1" stroke-width="12" stroke-linejoin="round" d="M 42 493 L 42 419.028381 L 303 419.028381 L 303 493 M 90 419.028381 L 90 344 L 251 344 L 251 419.028381"/>
    <path id="Pfad" fill="none" stroke="#a5a6b1" stroke-width="12" d="M 206 344 L 224 243 L 156 230 L 137 344"/>
    <path id="path1" fill="none" stroke="#a5a6b1" stroke-width="12" d="M 224 137 L 354 47 L 381 90 L 259 186"/>
    <path id="path2" fill="none" stroke="#a5a6b1" stroke-width="12" d="M 439 59 L 461 177 L 419 186 L 381 86"/>
    <path id="path3" fill="none" stroke="#a5a6b1" stroke-width="12" stroke-linejoin="round" d="M 397 215 L 337 278 L 381 381 L 425 360 L 394 292 L 425 261 L 468 263 L 499 292 L 479 361 L 521 381 L 552 272 L 492 220 L 397 215 Z"/>
    <path id="Ellipse" fill="#19282f" fill-rule="evenodd" stroke="#a5a6b1" stroke-width="12" d="M 258 186.5 C 258 154.191345 230.913239 128 197.5 128 C 164.086777 128 137 154.191345 137 186.5 C 137 218.808655 164.086777 245 197.5 245 C 230.913239 245 258 218.808655 258 186.5 Z"/>
    <path id="path4" fill="#19282f" fill-rule="evenodd" stroke="#a5a6b1" stroke-width="12" d="M 452 53.5 C 452 28.371033 430.061951 8 403 8 C 375.938049 8 354 28.371033 354 53.5 C 354 78.628967 375.938049 99 403 99 C 430.061951 99 452 78.628967 452 53.5 Z"/>
    <path id="path5" fill="#19282f" fill-rule="evenodd" stroke="#a5a6b1" stroke-width="12" d="M 493 215 C 493 189.042603 471.285828 168 444.5 168 C 417.714203 168 396 189.042603 396 215 C 396 240.957382 417.714203 262 444.5 262 C 471.285828 262 493 240.957382 493 215 Z"/>
    <path id="path6" fill="none" stroke="#a5a6b1" stroke-width="12" d="M 171 194 C 171 194 167.876953 156.583984 206 162"/>
    <path id="path7" fill="none" stroke="#a5a6b1" stroke-width="12" d="M 384 59 C 384 59 382.894531 39.095703 407 35"/>
    <path id="path8" fill="none" stroke="#a5a6b1" stroke-width="12" d="M 425 215 C 425 215 429.599609 197.566406 452 203"/>
</svg>
