<svg width="33" height="34" viewBox="0 0 33 34" fill="none" xmlns="http://www.w3.org/2000/svg">
<rect y="0.550049" width="33" height="33" rx="3.75" fill="white" fill-opacity="0.08"/>
<g clip-path="url(#clip0_10_810)">
<path d="M23.9963 24.5502V24.5496H24.0001V19.0483C24.0001 16.3571 23.4207 14.2839 20.2744 14.2839C18.7619 14.2839 17.7469 15.1139 17.3325 15.9008H17.2888V14.5352H14.3057V24.5496H17.4119V19.5908C17.4119 18.2852 17.6594 17.0227 19.2763 17.0227C20.8694 17.0227 20.8932 18.5127 20.8932 19.6746V24.5502H23.9963Z" fill="white"/>
<path d="M9.24756 14.5356H12.3576V24.55H9.24756V14.5356Z" fill="white"/>
<path d="M10.8012 9.55005C9.80687 9.55005 9 10.3569 9 11.3513C9 12.3457 9.80687 13.1694 10.8012 13.1694C11.7956 13.1694 12.6025 12.3457 12.6025 11.3513C12.6019 10.3569 11.795 9.55005 10.8012 9.55005V9.55005Z" fill="white"/>
</g>
<defs>
<clipPath id="clip0_10_810">
<rect width="15" height="15" fill="white" transform="translate(9 9.55005)"/>
</clipPath>
</defs>
</svg>
