<svg width="33" height="34" viewBox="0 0 33 34" fill="none" xmlns="http://www.w3.org/2000/svg">
<rect y="0.550049" width="33" height="33" rx="3.75" fill="white"/>
<path d="M24 12.3991C23.4422 12.6438 22.8478 12.806 22.2281 12.8847C22.8656 12.5041 23.3522 11.906 23.5809 11.185C22.9866 11.5394 22.3303 11.7897 21.6309 11.9294C21.0666 11.3285 20.2622 10.9563 19.3847 10.9563C17.6822 10.9563 16.3116 12.3382 16.3116 14.0322C16.3116 14.276 16.3322 14.5104 16.3828 14.7335C13.8263 14.6088 11.5641 13.3835 10.0444 11.5169C9.77906 11.9772 9.62344 12.5041 9.62344 13.0713C9.62344 14.1363 10.1719 15.0804 10.9894 15.6269C10.4953 15.6175 10.0106 15.4741 9.6 15.2482C9.6 15.2575 9.6 15.2697 9.6 15.2819C9.6 16.7763 10.6659 18.0175 12.0637 18.3035C11.8134 18.3719 11.5406 18.4047 11.2575 18.4047C11.0606 18.4047 10.8619 18.3935 10.6753 18.3522C11.0738 19.57 12.2044 20.4654 13.5488 20.4944C12.5025 21.3129 11.1741 21.806 9.73594 21.806C9.48375 21.806 9.24187 21.7947 9 21.7638C10.3622 22.6422 11.9766 23.1438 13.7175 23.1438C19.3763 23.1438 22.47 18.4563 22.47 14.3932C22.47 14.2572 22.4653 14.126 22.4587 13.9957C23.0691 13.5625 23.5819 13.0216 24 12.3991Z" fill="#0B63E5"/>
</svg>
