<svg width="33" height="34" viewBox="0 0 33 34" fill="none" xmlns="http://www.w3.org/2000/svg">
<rect y="0.550049" width="33" height="33" rx="3.75" fill="white" fill-opacity="0.08"/>
<g clip-path="url(#clip0_10_811)">
<path d="M23.9853 13.9601C23.9502 13.1631 23.8213 12.6151 23.6367 12.1404C23.4462 11.6364 23.1532 11.1852 22.7693 10.8101C22.3942 10.4291 21.94 10.1331 21.4418 9.94563C20.9643 9.761 20.4192 9.63212 19.6222 9.59698C18.8193 9.55886 18.5643 9.55005 16.5278 9.55005C14.4913 9.55005 14.2364 9.55886 13.4364 9.594C12.6394 9.62914 12.0915 9.75814 11.6168 9.94266C11.1127 10.1331 10.6615 10.4262 10.2864 10.8101C9.90544 11.1852 9.60956 11.6393 9.42195 12.1375C9.23732 12.6151 9.10844 13.1601 9.0733 13.9571C9.03518 14.7601 9.02637 15.015 9.02637 17.0515C9.02637 19.088 9.03518 19.343 9.07032 20.1429C9.10546 20.9399 9.23446 21.4879 9.41909 21.9627C9.60956 22.4667 9.90544 22.9179 10.2864 23.293C10.6615 23.6739 11.1157 23.9699 11.6138 24.1574C12.0915 24.342 12.6364 24.4709 13.4335 24.506C14.2334 24.5413 14.4884 24.55 16.525 24.55C18.5615 24.55 18.8164 24.5413 19.6164 24.506C20.4134 24.4709 20.9613 24.342 21.436 24.1574C22.4441 23.7676 23.2411 22.9706 23.6308 21.9627C23.8153 21.485 23.9443 20.9399 23.9795 20.1429C24.0146 19.343 24.0234 19.088 24.0234 17.0515C24.0234 15.015 24.0205 14.7601 23.9853 13.9601ZM22.6345 20.0843C22.6023 20.8169 22.4792 21.2125 22.3767 21.4762C22.1246 22.1297 21.606 22.6483 20.9525 22.9004C20.6888 23.0029 20.2903 23.126 19.5606 23.1581C18.7695 23.1934 18.5322 23.2021 16.5308 23.2021C14.5294 23.2021 14.2892 23.1934 13.5008 23.1581C12.7683 23.126 12.3727 23.0029 12.109 22.9004C11.7838 22.7802 11.4878 22.5897 11.2475 22.3406C10.9985 22.0974 10.808 21.8044 10.6878 21.4792C10.5852 21.2155 10.4622 20.8169 10.43 20.0873C10.3948 19.2961 10.3861 19.0587 10.3861 17.0574C10.3861 15.056 10.3948 14.8157 10.43 14.0275C10.4622 13.2949 10.5852 12.8994 10.6878 12.6356C10.808 12.3103 10.9985 12.0144 11.2505 11.7741C11.4936 11.525 11.7866 11.3345 12.1119 11.2145C12.3757 11.1119 12.7742 10.9889 13.5038 10.9566C14.295 10.9214 14.5324 10.9126 16.5337 10.9126C18.538 10.9126 18.7753 10.9214 19.5636 10.9566C20.2962 10.9889 20.6918 11.1119 20.9555 11.2145C21.2807 11.3345 21.5767 11.525 21.8169 11.7741C22.066 12.0173 22.2565 12.3103 22.3767 12.6356C22.4792 12.8994 22.6023 13.2978 22.6345 14.0275C22.6697 14.8187 22.6785 15.056 22.6785 17.0574C22.6785 19.0587 22.6697 19.2932 22.6345 20.0843Z" fill="white"/>
<path d="M16.5279 13.1982C14.4006 13.1982 12.6746 14.9241 12.6746 17.0515C12.6746 19.1789 14.4006 20.9048 16.5279 20.9048C18.6553 20.9048 20.3811 19.1789 20.3811 17.0515C20.3811 14.9241 18.6553 13.1982 16.5279 13.1982ZM16.5279 19.5511C15.1478 19.5511 14.0283 18.4317 14.0283 17.0515C14.0283 15.6713 15.1478 14.552 16.5279 14.552C17.9081 14.552 19.0274 15.6713 19.0274 17.0515C19.0274 18.4317 17.9081 19.5511 16.5279 19.5511Z" fill="white"/>
<path d="M21.433 13.0458C21.433 13.5426 21.0302 13.9454 20.5334 13.9454C20.0366 13.9454 19.6338 13.5426 19.6338 13.0458C19.6338 12.5489 20.0366 12.1462 20.5334 12.1462C21.0302 12.1462 21.433 12.5489 21.433 13.0458Z" fill="white"/>
</g>
<defs>
<clipPath id="clip0_10_811">
<rect width="15" height="15" fill="white" transform="translate(9 9.55005)"/>
</clipPath>
</defs>
</svg>
